<?xml version="1.0"?>
<svg version="1.1" id="圖層_1" xmlns="http://www.w3.org/2000/svg" x="0" y="0" viewBox="0 0 100 100" xml:space="preserve"><path d="M76.2 31.8c.6-1.9.9-3.8.9-5.9 0-10.7-8.7-19.4-19.4-19.4-7.4 0-13.9 4.2-17.2 10.3-1.2-.4-2.5-.6-3.9-.6-7.2 0-13 5.8-13 13 0 .9.1 1.8.3 2.6-6.6 1-11.6 6.7-11.6 13.6 0 7.6 6.2 13.8 13.8 13.8h47.8c7.6 0 13.8-6.2 13.8-13.8-.1-6.8-5-12.5-11.5-13.6z" fill-rule="evenodd" clip-rule="evenodd" fill="#b5b5b5"/><g><path d="M82.4 69.2H62.2c-1.1 0-2-.9-2-2s.9-2 2-2h20.2c1.1 0 2 .9 2 2s-.9 2-2 2z" fill="#e6e6e6"/></g><g><path d="M54 69.2H34.5c-1.1 0-2-.9-2-2s.9-2 2-2H54c1.1 0 2 .9 2 2s-.9 2-2 2z" fill="#e6e6e6"/></g><g><path d="M26.6 69.2h-9c-1.1 0-2-.9-2-2s.9-2 2-2h9c1.1 0 2 .9 2 2s-.9 2-2 2z" fill="#e6e6e6"/></g><g><path d="M82.4 77.3h-8.5c-1.1 0-2-.9-2-2s.9-2 2-2h8.5c1.1 0 2 .9 2 2s-.9 2-2 2z" fill="#e6e6e6"/></g><g><path d="M65.3 77.3H49.9c-1.1 0-2-.9-2-2s.9-2 2-2h15.4c1.1 0 2 .9 2 2s-.9 2-2 2z" fill="#e6e6e6"/></g><g><path d="M41.6 77.3H17.7c-1.1 0-2-.9-2-2s.9-2 2-2h23.9c1.1 0 2 .9 2 2s-.9 2-2 2z" fill="#e6e6e6"/></g><g><path d="M82.4 85.4H69.6c-1.1 0-2-.9-2-2s.9-2 2-2h12.8c1.1 0 2 .9 2 2s-.9 2-2 2z" fill="#e6e6e6"/></g><g><path d="M61.7 85.4h-29c-1.1 0-2-.9-2-2s.9-2 2-2h29c1.1 0 2 .9 2 2s-.9 2-2 2z" fill="#e6e6e6"/></g><g><path d="M24.9 85.4h-7.2c-1.1 0-2-.9-2-2s.9-2 2-2h7.2c1.1 0 2 .9 2 2s-.9 2-2 2z" fill="#e6e6e6"/></g><g><path d="M82.4 93.5h-8.5c-1.1 0-2-.9-2-2s.9-2 2-2h8.5c1.1 0 2 .9 2 2s-.9 2-2 2z" fill="#e6e6e6"/></g><g><path d="M66.6 93.5h-8.8c-1.1 0-2-.9-2-2s.9-2 2-2h8.8c1.1 0 2 .9 2 2s-.9 2-2 2z" fill="#e6e6e6"/></g><g><path d="M50 93.5H38.3c-1.1 0-2-.9-2-2s.9-2 2-2H50c1.1 0 2 .9 2 2s-.9 2-2 2z" fill="#e6e6e6"/></g><g><path d="M30.7 93.5h-13c-1.1 0-2-.9-2-2s.9-2 2-2h13c1.1 0 2 .9 2 2s-.9 2-2 2z" fill="#e6e6e6"/></g><metadata xmlns:d="https://loading.io/stock/"><d:name>fog</d:name><d:tags>mist,cloud,smoke,dust,invisible,vapour,moist,fog,weather</d:tags><d:license>pro</d:license><d:slug>bd8a5b</d:slug></metadata></svg>